# xmcd
#
# Track frame offsets: 
#        150
#        28637
#        65912
#        78475
#        94712
#        130862
#        159137
#        175487
#        196112
#        222062
#        264962
#        280562
#
# Disc length: 4095 seconds
#
# Revision: 7
# Processed by: cddbd v1.5.2PL0 Copyright (c) Steve Scherf et al.
# Submitted via: ExactAudioCopy v0.99pb5
#
DISCID=9b0ffd0c
DTITLE=Adam Fischer - Austro-Hungarian Haydn Orchestra - Haydn - Symph
DTITLE=onies Nos. 52 - 54
DYEAR=1995
DGENRE=Klassik
TTITLE0=Symphony No 52  in C minor - I. Allegro assai con brio
TTITLE1=Symphony No 52  in C minor - II. Andante
TTITLE2=Symphony No 52  in C minor - III. Menuetto  and trio, allegretto
TTITLE3=Symphony No 52  in C minor - IV. Finale, presto
TTITLE4=Symphony No 53  in D major ''L'Impériale'' - I. Largo maestoso
TTITLE4=vivace
TTITLE5=Symphony No 53  in D major ''L'Impériale'' - II. Andante
TTITLE6=Symphony No 53  in D major ''L'Impériale'' - III. Menuetto and t
TTITLE6=rio
TTITLE7=Symphony No 53  in D major ''L'Impériale'' - IV. Finale-Capric
TTITLE7=cio, presto
TTITLE8=Symphony No 54  in G major - I. Adagio maestoso-presto,
TTITLE9=Symphony No 54  in G major - II. Adagio assai
TTITLE10=Symphony No 54  in G major - III. Menuet and trio, allegretto
TTITLE11=Symphony No 54  in G major - IV. Finale, presto
EXTD=haydn symphonies 52 - 54 YEAR: 1995
EXTT0=
EXTT1=
EXTT2=
EXTT3=
EXTT4=
EXTT5=
EXTT6=
EXTT7=
EXTT8=
EXTT9=
EXTT10=
EXTT11=
PLAYORDER=
